<svg id="svg" version="1.1" xmlns="http://www.w3.org/2000/svg" xmlns:xlink="http://www.w3.org/1999/xlink" width="400" height="400" viewBox="0, 0, 400,400"><g id="svgg"><path id="path0" d="M147.600 219.800 L 147.600 255.200 152.400 255.200 L 157.200 255.200 157.200 240.400 L 157.200 225.600 161.000 225.600 L 164.800 225.600 164.800 219.800 C 164.800 214.267,164.763 214.000,164.000 214.000 C 163.378 214.000,163.200 213.733,163.200 212.800 L 163.200 211.600 160.200 211.600 L 157.200 211.600 157.200 205.400 L 157.200 199.200 161.000 199.200 L 164.800 199.200 164.800 191.800 L 164.800 184.400 156.200 184.400 L 147.600 184.400 147.600 219.800 M168.000 186.000 C 168.000 187.333,167.867 187.600,167.200 187.600 C 166.406 187.600,166.400 187.867,166.400 221.400 L 166.400 255.200 175.400 255.200 L 184.400 255.200 184.400 248.200 L 184.400 241.200 179.800 241.200 L 175.200 241.200 175.200 212.800 L 175.200 184.400 171.600 184.400 L 168.000 184.400 168.000 186.000 M190.800 186.000 L 190.800 187.600 189.200 187.600 C 187.689 187.600,187.600 187.667,187.600 188.800 C 187.600 189.460,187.420 190.000,187.200 190.000 C 186.974 190.000,186.800 191.133,186.800 192.600 C 186.800 194.933,186.718 195.200,186.000 195.200 C 185.209 195.200,185.200 195.467,185.200 219.800 C 185.200 244.133,185.209 244.400,186.000 244.400 C 186.724 244.400,186.800 244.667,186.800 247.200 C 186.800 248.800,186.971 250.000,187.200 250.000 C 187.420 250.000,187.600 250.540,187.600 251.200 C 187.600 252.133,187.778 252.400,188.400 252.400 C 189.048 252.400,189.200 252.667,189.200 253.800 L 189.200 255.200 195.800 255.200 L 202.400 255.200 202.400 253.800 C 202.400 253.030,202.580 252.400,202.800 252.400 C 203.020 252.400,203.200 251.860,203.200 251.200 C 203.200 250.267,203.378 250.000,204.000 250.000 C 204.724 250.000,204.800 249.733,204.800 247.200 C 204.800 244.667,204.876 244.400,205.600 244.400 C 206.391 244.400,206.400 244.133,206.400 219.800 C 206.400 195.467,206.391 195.200,205.600 195.200 C 204.882 195.200,204.800 194.933,204.800 192.600 C 204.800 190.267,204.718 190.000,204.000 190.000 C 203.378 190.000,203.200 189.733,203.200 188.800 C 203.200 187.733,203.067 187.600,202.000 187.600 C 200.867 187.600,200.800 187.511,200.800 186.000 L 200.800 184.400 195.800 184.400 L 190.800 184.400 190.800 186.000 M207.867 184.667 C 207.105 185.429,207.592 195.673,208.400 195.884 C 209.167 196.085,209.200 196.430,209.200 204.247 C 209.200 209.416,209.346 212.400,209.600 212.400 C 209.853 212.400,210.000 215.267,210.000 220.200 C 210.000 227.733,210.027 228.000,210.800 228.000 C 211.574 228.000,211.600 228.267,211.600 236.200 C 211.600 244.133,211.626 244.400,212.400 244.400 C 213.160 244.400,213.200 244.667,213.200 249.800 L 213.200 255.200 218.200 255.200 L 223.200 255.200 223.200 248.600 C 223.200 242.267,223.232 242.000,224.000 242.000 C 224.770 242.000,224.800 241.733,224.800 235.000 C 224.800 228.267,224.830 228.000,225.600 228.000 C 226.383 228.000,226.400 228.267,226.400 240.200 C 226.400 252.133,226.417 252.400,227.200 252.400 C 227.848 252.400,228.000 252.667,228.000 253.800 L 228.000 255.200 232.400 255.200 L 236.800 255.200 236.800 252.647 C 236.800 250.506,236.919 250.062,237.535 249.901 C 238.296 249.702,238.800 239.912,238.800 225.335 C 238.800 220.667,238.843 220.400,239.600 220.400 C 240.373 220.400,240.400 220.133,240.400 212.600 C 240.400 205.067,240.427 204.800,241.200 204.800 C 241.970 204.800,242.000 204.533,242.000 197.800 C 242.000 193.400,242.149 190.800,242.400 190.800 C 242.620 190.800,242.800 190.080,242.800 189.200 C 242.800 188.320,242.620 187.600,242.400 187.600 C 242.180 187.600,242.000 186.880,242.000 186.000 L 242.000 184.400 238.200 184.400 L 234.400 184.400 234.400 188.600 C 234.400 191.133,234.241 192.800,234.000 192.800 C 233.743 192.800,233.600 196.600,233.600 203.400 C 233.600 213.733,233.580 214.000,232.800 214.000 C 232.032 214.000,232.000 214.267,232.000 220.600 C 232.000 224.733,231.851 227.200,231.600 227.200 C 231.344 227.200,231.200 223.467,231.200 216.800 C 231.200 206.667,231.179 206.400,230.400 206.400 C 229.623 206.400,229.600 206.133,229.600 197.000 C 229.600 191.000,229.455 187.600,229.200 187.600 C 228.980 187.600,228.800 186.880,228.800 186.000 L 228.800 184.400 225.000 184.400 L 221.200 184.400 221.200 191.400 C 221.200 198.133,221.170 198.400,220.400 198.400 C 219.617 198.400,219.600 198.667,219.600 210.600 C 219.600 222.533,219.583 222.800,218.800 222.800 C 218.017 222.800,218.000 222.533,218.000 210.600 C 218.000 198.667,217.983 198.400,217.200 198.400 C 216.430 198.400,216.400 198.133,216.400 191.400 L 216.400 184.400 212.267 184.400 C 209.993 184.400,208.013 184.520,207.867 184.667 M196.800 220.200 C 196.800 233.933,196.662 241.200,196.400 241.200 C 196.180 241.200,196.000 241.740,196.000 242.400 C 196.000 243.467,195.867 243.600,194.800 243.600 L 193.600 243.600 193.600 221.400 L 193.600 199.200 195.200 199.200 L 196.800 199.200 196.800 220.200 " stroke="none" fill="#1071b5" fill-rule="evenodd"></path><path id="path1" d="M21.867 85.467 C 21.720 85.613,21.600 87.053,21.600 88.667 L 21.600 91.600 23.000 91.600 L 24.400 91.600 24.400 94.400 C 24.400 96.000,24.571 97.200,24.800 97.200 C 25.020 97.200,25.200 97.638,25.200 98.173 C 25.200 98.795,25.489 99.238,26.000 99.400 C 26.595 99.589,26.800 100.005,26.800 101.027 C 26.800 102.133,26.955 102.400,27.600 102.400 C 28.222 102.400,28.400 102.667,28.400 103.600 C 28.400 104.260,28.580 104.800,28.800 104.800 C 29.020 104.800,29.200 105.520,29.200 106.400 C 29.200 107.733,29.333 108.000,30.000 108.000 C 30.622 108.000,30.800 108.267,30.800 109.200 C 30.800 110.133,30.978 110.400,31.600 110.400 C 32.267 110.400,32.400 110.667,32.400 112.000 C 32.400 113.333,32.533 113.600,33.200 113.600 C 33.787 113.600,34.000 113.867,34.000 114.600 C 34.000 115.150,34.180 115.600,34.400 115.600 C 34.620 115.600,34.800 116.320,34.800 117.200 C 34.800 118.533,34.933 118.800,35.600 118.800 C 36.222 118.800,36.400 119.067,36.400 120.000 C 36.400 120.917,36.581 121.200,37.168 121.200 C 37.820 121.200,37.979 121.602,38.220 123.851 C 38.446 125.963,38.656 126.542,39.252 126.698 C 39.764 126.832,40.000 127.256,40.000 128.047 C 40.000 128.933,40.185 129.200,40.800 129.200 C 41.448 129.200,41.600 129.467,41.600 130.600 C 41.600 131.370,41.780 132.000,42.000 132.000 C 42.220 132.000,42.400 132.540,42.400 133.200 C 42.400 134.133,42.578 134.400,43.200 134.400 C 43.867 134.400,44.000 134.667,44.000 136.000 C 44.000 137.333,44.133 137.600,44.800 137.600 C 45.422 137.600,45.600 137.867,45.600 138.800 C 45.600 139.733,45.778 140.000,46.400 140.000 C 47.022 140.000,47.200 140.267,47.200 141.200 C 47.200 141.860,47.380 142.400,47.600 142.400 C 47.820 142.400,48.000 143.120,48.000 144.000 C 48.000 145.333,48.133 145.600,48.800 145.600 C 49.387 145.600,49.600 145.867,49.600 146.600 C 49.600 147.333,49.813 147.600,50.400 147.600 C 51.067 147.600,51.200 147.867,51.200 149.200 C 51.200 150.080,51.380 150.800,51.600 150.800 C 51.820 150.800,52.000 151.340,52.000 152.000 C 52.000 152.933,52.178 153.200,52.800 153.200 C 53.467 153.200,53.600 153.467,53.600 154.800 C 53.600 155.956,53.767 156.400,54.200 156.400 C 54.600 156.400,54.800 156.800,54.800 157.600 C 54.800 158.533,54.978 158.800,55.600 158.800 C 56.248 158.800,56.400 159.067,56.400 160.200 C 56.400 160.970,56.580 161.600,56.800 161.600 C 57.020 161.600,57.200 162.140,57.200 162.800 C 57.200 163.733,57.378 164.000,58.000 164.000 C 58.622 164.000,58.800 164.267,58.800 165.200 C 58.800 166.133,58.978 166.400,59.600 166.400 C 60.267 166.400,60.400 166.667,60.400 168.000 C 60.400 168.880,60.580 169.600,60.800 169.600 C 61.020 169.600,61.200 170.140,61.200 170.800 C 61.200 171.733,61.378 172.000,62.000 172.000 C 62.667 172.000,62.800 172.267,62.800 173.600 C 62.800 174.933,62.933 175.200,63.600 175.200 C 64.187 175.200,64.400 175.467,64.400 176.200 C 64.400 176.750,64.580 177.200,64.800 177.200 C 65.020 177.200,65.200 177.920,65.200 178.800 C 65.200 180.133,65.333 180.400,66.000 180.400 C 66.622 180.400,66.800 180.667,66.800 181.600 C 66.800 182.533,66.978 182.800,67.600 182.800 C 68.222 182.800,68.400 183.067,68.400 184.000 C 68.400 184.800,68.600 185.200,69.000 185.200 C 69.521 185.200,69.863 186.733,69.647 188.100 C 69.621 188.265,69.780 188.400,70.000 188.400 C 70.220 188.400,70.400 188.940,70.400 189.600 C 70.400 190.533,70.578 190.800,71.200 190.800 C 71.848 190.800,72.000 191.067,72.000 192.200 C 72.000 193.333,72.152 193.600,72.800 193.600 C 73.422 193.600,73.600 193.867,73.600 194.800 C 73.600 195.460,73.780 196.000,74.000 196.000 C 74.220 196.000,74.400 196.720,74.400 197.600 C 74.400 198.933,74.533 199.200,75.200 199.200 C 75.822 199.200,76.000 199.467,76.000 200.400 C 76.000 201.333,76.178 201.600,76.800 201.600 C 77.467 201.600,77.600 201.867,77.600 203.200 C 77.600 204.533,77.733 204.800,78.400 204.800 C 79.022 204.800,79.200 205.067,79.200 206.000 C 79.200 206.660,79.380 207.200,79.600 207.200 C 79.820 207.200,80.000 207.650,80.000 208.200 C 80.000 208.933,80.213 209.200,80.800 209.200 C 81.467 209.200,81.600 209.467,81.600 210.800 C 81.600 212.133,81.733 212.400,82.400 212.400 C 83.022 212.400,83.200 212.667,83.200 213.600 C 83.200 214.260,83.380 214.800,83.600 214.800 C 83.820 214.800,84.000 215.520,84.000 216.400 C 84.000 217.556,84.167 218.000,84.600 218.000 C 85.000 218.000,85.200 218.400,85.200 219.200 C 85.200 220.133,85.378 220.400,86.000 220.400 C 86.648 220.400,86.800 220.667,86.800 221.800 C 86.800 222.570,86.980 223.200,87.200 223.200 C 87.420 223.200,87.600 223.740,87.600 224.400 C 87.600 225.333,87.778 225.600,88.400 225.600 C 89.022 225.600,89.200 225.867,89.200 226.800 C 89.200 227.733,89.378 228.000,90.000 228.000 C 90.667 228.000,90.800 228.267,90.800 229.600 C 90.800 230.933,90.933 231.200,91.600 231.200 C 92.222 231.200,92.400 231.467,92.400 232.400 C 92.400 233.060,92.580 233.600,92.800 233.600 C 93.020 233.600,93.200 234.320,93.200 235.200 C 93.200 236.533,93.333 236.800,94.000 236.800 C 94.587 236.800,94.800 237.067,94.800 237.800 C 94.800 238.533,95.013 238.800,95.600 238.800 C 96.267 238.800,96.400 239.067,96.400 240.400 C 96.400 241.280,96.580 242.000,96.800 242.000 C 97.020 242.000,97.200 242.540,97.200 243.200 C 97.200 244.133,97.378 244.400,98.000 244.400 C 98.622 244.400,98.800 244.667,98.800 245.600 C 98.800 246.400,99.000 246.800,99.400 246.800 C 99.822 246.800,100.000 247.226,100.000 248.237 C 100.000 249.338,100.187 249.724,100.800 249.884 C 101.367 250.032,101.600 250.430,101.600 251.247 C 101.600 251.881,101.780 252.400,102.000 252.400 C 102.220 252.400,102.400 253.030,102.400 253.800 L 102.400 255.200 104.400 255.200 L 106.400 255.200 106.400 253.800 C 106.400 253.030,106.580 252.400,106.800 252.400 C 107.020 252.400,107.200 251.860,107.200 251.200 C 107.200 250.267,107.378 250.000,108.000 250.000 C 108.667 250.000,108.800 249.733,108.800 248.400 C 108.800 247.067,108.933 246.800,109.600 246.800 C 110.222 246.800,110.400 246.533,110.400 245.600 C 110.400 244.940,110.580 244.400,110.800 244.400 C 111.020 244.400,111.200 243.860,111.200 243.200 C 111.200 242.267,111.378 242.000,112.000 242.000 C 112.667 242.000,112.800 241.733,112.800 240.400 C 112.800 239.067,112.933 238.800,113.600 238.800 C 114.187 238.800,114.400 238.533,114.400 237.800 C 114.400 237.178,114.627 236.800,115.000 236.800 C 115.433 236.800,115.600 236.356,115.600 235.200 C 115.600 234.320,115.780 233.600,116.000 233.600 C 116.220 233.600,116.400 233.060,116.400 232.400 C 116.400 231.467,116.578 231.200,117.200 231.200 C 117.867 231.200,118.000 230.933,118.000 229.600 C 118.000 228.267,118.133 228.000,118.800 228.000 C 119.422 228.000,119.600 227.733,119.600 226.800 C 119.600 226.140,119.780 225.600,120.000 225.600 C 120.220 225.600,120.400 225.060,120.400 224.400 C 120.400 223.467,120.578 223.200,121.200 223.200 C 121.848 223.200,122.000 222.933,122.000 221.800 C 122.000 220.667,122.152 220.400,122.800 220.400 C 123.422 220.400,123.600 220.133,123.600 219.200 C 123.600 218.267,123.778 218.000,124.400 218.000 C 125.067 218.000,125.200 217.733,125.200 216.400 C 125.200 215.520,125.380 214.800,125.600 214.800 C 125.820 214.800,126.000 214.260,126.000 213.600 C 126.000 212.667,126.178 212.400,126.800 212.400 C 127.467 212.400,127.600 212.133,127.600 210.800 C 127.600 209.467,127.733 209.200,128.400 209.200 C 129.022 209.200,129.200 208.933,129.200 208.000 C 129.200 207.340,129.380 206.800,129.600 206.800 C 129.820 206.800,130.000 206.350,130.000 205.800 C 130.000 205.178,130.227 204.800,130.600 204.800 C 131.033 204.800,131.200 204.356,131.200 203.200 C 131.200 201.867,131.333 201.600,132.000 201.600 C 132.622 201.600,132.800 201.333,132.800 200.400 C 132.800 199.467,132.978 199.200,133.600 199.200 C 134.267 199.200,134.400 198.933,134.400 197.600 C 134.400 196.720,134.580 196.000,134.800 196.000 C 135.020 196.000,135.200 195.460,135.200 194.800 C 135.200 193.867,135.378 193.600,136.000 193.600 C 136.648 193.600,136.800 193.333,136.800 192.200 C 136.800 191.067,136.952 190.800,137.600 190.800 C 138.222 190.800,138.400 190.533,138.400 189.600 C 138.400 188.940,138.580 188.400,138.800 188.400 C 139.020 188.400,139.200 187.680,139.200 186.800 C 139.200 185.467,139.333 185.200,140.000 185.200 C 140.622 185.200,140.800 184.933,140.800 184.000 C 140.800 183.067,140.978 182.800,141.600 182.800 C 142.222 182.800,142.400 182.533,142.400 181.600 C 142.400 180.940,142.580 180.400,142.800 180.400 C 143.020 180.400,143.200 179.680,143.200 178.800 C 143.200 177.467,143.333 177.200,144.000 177.200 C 144.587 177.200,144.800 176.933,144.800 176.200 C 144.800 175.578,145.027 175.200,145.400 175.200 C 145.833 175.200,146.000 174.756,146.000 173.600 C 146.000 172.267,146.133 172.000,146.800 172.000 C 147.422 172.000,147.600 171.733,147.600 170.800 C 147.600 170.140,147.780 169.600,148.000 169.600 C 148.220 169.600,148.400 168.880,148.400 168.000 C 148.400 166.667,148.533 166.400,149.200 166.400 C 149.822 166.400,150.000 166.133,150.000 165.200 C 150.000 164.267,150.178 164.000,150.800 164.000 C 151.422 164.000,151.600 163.733,151.600 162.800 C 151.600 162.140,151.780 161.600,152.000 161.600 C 152.220 161.600,152.400 160.970,152.400 160.200 C 152.400 159.067,152.552 158.800,153.200 158.800 C 153.822 158.800,154.000 158.533,154.000 157.600 C 154.000 156.667,154.178 156.400,154.800 156.400 C 155.467 156.400,155.600 156.133,155.600 154.800 C 155.600 153.467,155.733 153.200,156.400 153.200 C 157.022 153.200,157.200 152.933,157.200 152.000 C 157.200 151.340,157.380 150.800,157.600 150.800 C 157.820 150.800,158.000 150.080,158.000 149.200 C 158.000 147.867,158.133 147.600,158.800 147.600 C 159.364 147.600,159.600 147.333,159.600 146.696 C 159.600 146.199,159.941 145.579,160.358 145.319 C 160.902 144.979,161.196 144.161,161.397 142.423 C 161.631 140.407,161.806 140.000,162.439 140.000 C 163.018 140.000,163.200 139.713,163.200 138.800 C 163.200 137.867,163.378 137.600,164.000 137.600 C 164.667 137.600,164.800 137.333,164.800 136.000 C 164.800 135.120,164.980 134.400,165.200 134.400 C 165.420 134.400,165.600 133.860,165.600 133.200 C 165.600 132.267,165.778 132.000,166.400 132.000 C 167.048 132.000,167.200 131.733,167.200 130.600 C 167.200 129.467,167.352 129.200,168.000 129.200 C 168.724 129.200,168.800 128.933,168.800 126.400 C 168.800 123.867,168.876 123.600,169.600 123.600 C 170.222 123.600,170.400 123.333,170.400 122.400 C 170.400 121.740,170.580 121.200,170.800 121.200 C 171.020 121.200,171.200 120.660,171.200 120.000 C 171.200 119.067,171.378 118.800,172.000 118.800 C 172.667 118.800,172.800 118.533,172.800 117.200 C 172.800 115.867,172.933 115.600,173.600 115.600 C 174.187 115.600,174.400 115.333,174.400 114.600 C 174.400 114.050,174.580 113.600,174.800 113.600 C 175.020 113.600,175.200 112.880,175.200 112.000 C 175.200 110.673,175.335 110.400,175.990 110.400 C 176.654 110.400,176.742 110.209,176.540 109.200 C 176.334 108.168,176.419 108.000,177.150 108.000 C 177.875 108.000,178.000 107.765,178.000 106.400 C 178.000 105.067,178.133 104.800,178.800 104.800 C 179.422 104.800,179.600 104.533,179.600 103.600 C 179.600 102.940,179.780 102.400,180.000 102.400 C 180.220 102.400,180.400 101.770,180.400 101.000 C 180.400 99.867,180.552 99.600,181.200 99.600 C 181.822 99.600,182.000 99.333,182.000 98.400 L 182.000 97.200 219.000 97.200 C 254.970 97.200,256.000 97.221,256.000 97.953 C 256.000 98.370,255.643 98.800,255.200 98.916 C 254.617 99.068,254.400 99.462,254.400 100.363 C 254.400 101.196,254.204 101.600,253.800 101.600 C 253.400 101.600,253.200 102.000,253.200 102.800 C 253.200 103.733,253.022 104.000,252.400 104.000 C 251.733 104.000,251.600 104.267,251.600 105.600 C 251.600 106.480,251.420 107.200,251.200 107.200 C 250.980 107.200,250.800 107.740,250.800 108.400 C 250.800 109.333,250.622 109.600,250.000 109.600 C 249.333 109.600,249.200 109.867,249.200 111.200 C 249.200 112.533,249.067 112.800,248.400 112.800 C 247.778 112.800,247.600 113.067,247.600 114.000 C 247.600 114.660,247.420 115.200,247.200 115.200 C 246.980 115.200,246.800 115.830,246.800 116.600 C 246.800 117.733,246.648 118.000,246.000 118.000 C 245.378 118.000,245.200 118.267,245.200 119.200 C 245.200 120.133,245.022 120.400,244.400 120.400 C 243.778 120.400,243.600 120.667,243.600 121.600 C 243.600 122.533,243.422 122.800,242.800 122.800 C 242.133 122.800,242.000 123.067,242.000 124.400 C 242.000 125.280,241.820 126.000,241.600 126.000 C 241.380 126.000,241.200 126.540,241.200 127.200 C 241.200 128.133,241.022 128.400,240.400 128.400 C 239.757 128.400,239.600 128.667,239.600 129.757 C 239.600 130.595,239.370 131.203,239.000 131.345 C 238.670 131.471,238.400 132.031,238.400 132.587 C 238.400 133.144,238.220 133.600,238.000 133.600 C 237.780 133.600,237.600 134.320,237.600 135.200 C 237.600 136.533,237.467 136.800,236.800 136.800 C 236.178 136.800,236.000 137.067,236.000 138.000 C 236.000 138.933,235.822 139.200,235.200 139.200 C 234.578 139.200,234.400 139.467,234.400 140.400 C 234.400 141.060,234.220 141.600,234.000 141.600 C 233.780 141.600,233.600 142.320,233.600 143.200 C 233.600 144.533,233.467 144.800,232.800 144.800 C 232.213 144.800,232.000 145.067,232.000 145.800 C 232.000 146.533,231.787 146.800,231.200 146.800 C 230.533 146.800,230.400 147.067,230.400 148.400 C 230.400 149.733,230.267 150.000,229.600 150.000 C 228.978 150.000,228.800 150.267,228.800 151.200 C 228.800 151.860,228.620 152.400,228.400 152.400 C 228.180 152.400,228.000 153.120,228.000 154.000 C 228.000 155.333,227.867 155.600,227.200 155.600 C 226.578 155.600,226.400 155.867,226.400 156.800 C 226.400 157.733,226.222 158.000,225.600 158.000 C 224.933 158.000,224.800 158.267,224.800 159.600 C 224.800 160.480,224.620 161.200,224.400 161.200 C 224.180 161.200,224.000 161.650,224.000 162.200 C 224.000 162.822,223.773 163.200,223.400 163.200 C 223.000 163.200,222.800 163.600,222.800 164.400 C 222.800 165.333,222.622 165.600,222.000 165.600 C 221.333 165.600,221.200 165.867,221.200 167.200 C 221.200 168.533,221.067 168.800,220.400 168.800 C 219.778 168.800,219.600 169.067,219.600 170.000 C 219.600 170.660,219.420 171.200,219.200 171.200 C 218.980 171.200,218.800 171.920,218.800 172.800 C 218.800 174.133,218.667 174.400,218.000 174.400 C 217.378 174.400,217.200 174.667,217.200 175.600 C 217.200 176.533,217.022 176.800,216.400 176.800 C 215.671 176.800,215.600 177.067,215.600 179.817 L 215.600 182.834 218.700 182.717 C 221.751 182.602,221.802 182.583,221.927 181.500 C 221.999 180.870,222.298 180.400,222.627 180.400 C 223.029 180.400,223.200 179.923,223.200 178.800 C 223.200 177.467,223.333 177.200,224.000 177.200 C 224.587 177.200,224.800 176.933,224.800 176.200 C 224.800 175.650,224.980 175.200,225.200 175.200 C 225.420 175.200,225.600 174.480,225.600 173.600 C 225.600 172.267,225.733 172.000,226.400 172.000 C 227.022 172.000,227.200 171.733,227.200 170.800 C 227.200 169.867,227.378 169.600,228.000 169.600 C 228.667 169.600,228.800 169.333,228.800 168.000 C 228.800 167.120,228.980 166.400,229.200 166.400 C 229.420 166.400,229.600 165.860,229.600 165.200 C 229.600 164.267,229.778 164.000,230.400 164.000 C 231.022 164.000,231.200 163.733,231.200 162.800 C 231.200 161.867,231.378 161.600,232.000 161.600 C 232.642 161.600,232.800 161.333,232.800 160.247 C 232.800 159.230,232.999 158.841,233.600 158.684 C 234.141 158.543,234.400 158.138,234.400 157.437 C 234.400 156.867,234.580 156.400,234.800 156.400 C 235.020 156.400,235.200 155.680,235.200 154.800 C 235.200 153.467,235.333 153.200,236.000 153.200 C 236.622 153.200,236.800 152.933,236.800 152.000 C 236.800 151.067,236.978 150.800,237.600 150.800 C 238.205 150.800,238.401 150.532,238.404 149.700 C 238.414 147.295,238.892 145.669,239.647 145.472 C 240.208 145.325,240.400 144.909,240.400 143.837 C 240.400 142.667,240.548 142.400,241.200 142.400 C 241.822 142.400,242.000 142.133,242.000 141.200 C 242.000 140.540,242.180 140.000,242.400 140.000 C 242.620 140.000,242.800 139.460,242.800 138.800 C 242.800 137.867,242.978 137.600,243.600 137.600 C 244.267 137.600,244.400 137.333,244.400 136.000 C 244.400 134.667,244.533 134.400,245.200 134.400 C 245.822 134.400,246.000 134.133,246.000 133.200 C 246.000 132.267,246.178 132.000,246.800 132.000 C 247.445 132.000,247.600 131.733,247.600 130.624 C 247.600 129.867,247.780 129.136,248.000 129.000 C 248.220 128.864,248.400 128.313,248.400 127.776 C 248.400 127.067,248.618 126.800,249.200 126.800 C 249.867 126.800,250.000 126.533,250.000 125.200 C 250.000 123.867,250.133 123.600,250.800 123.600 C 251.422 123.600,251.600 123.333,251.600 122.400 C 251.600 121.740,251.780 121.200,252.000 121.200 C 252.220 121.200,252.400 120.660,252.400 120.000 C 252.400 119.200,252.600 118.800,253.000 118.800 C 253.433 118.800,253.600 118.356,253.600 117.200 C 253.600 115.867,253.733 115.600,254.400 115.600 C 254.987 115.600,255.200 115.333,255.200 114.600 C 255.200 113.867,255.413 113.600,256.000 113.600 C 256.667 113.600,256.800 113.333,256.800 112.000 C 256.800 111.120,256.980 110.400,257.200 110.400 C 257.420 110.400,257.600 109.860,257.600 109.200 C 257.600 108.267,257.778 108.000,258.400 108.000 C 259.067 108.000,259.200 107.733,259.200 106.400 C 259.200 105.067,259.333 104.800,260.000 104.800 C 260.622 104.800,260.800 104.533,260.800 103.600 C 260.800 102.940,260.980 102.400,261.200 102.400 C 261.420 102.400,261.600 101.770,261.600 101.000 C 261.600 99.867,261.752 99.600,262.400 99.600 C 263.022 99.600,263.200 99.333,263.200 98.400 C 263.200 97.467,263.378 97.200,264.000 97.200 C 264.622 97.200,264.800 96.933,264.800 96.000 C 264.800 95.340,264.980 94.800,265.200 94.800 C 265.420 94.800,265.600 94.080,265.600 93.200 C 265.600 91.867,265.733 91.600,266.400 91.600 C 267.133 91.600,267.200 91.333,267.200 88.400 L 267.200 85.200 224.200 85.200 L 181.200 85.200 181.200 86.753 C 181.200 87.970,181.027 88.352,180.400 88.516 C 179.859 88.657,179.600 89.062,179.600 89.763 C 179.600 90.333,179.420 90.800,179.200 90.800 C 178.980 90.800,178.800 91.520,178.800 92.400 C 178.800 93.733,178.667 94.000,178.000 94.000 C 177.560 94.000,177.221 94.135,177.247 94.300 C 177.422 95.403,177.114 96.400,176.600 96.400 C 176.200 96.400,176.000 96.800,176.000 97.600 C 176.000 98.533,175.822 98.800,175.200 98.800 C 174.552 98.800,174.400 99.067,174.400 100.200 C 174.400 100.970,174.220 101.600,174.000 101.600 C 173.780 101.600,173.600 102.140,173.600 102.800 C 173.600 103.733,173.422 104.000,172.800 104.000 C 172.133 104.000,172.000 104.267,172.000 105.600 C 172.000 106.933,171.867 107.200,171.200 107.200 C 170.578 107.200,170.400 107.467,170.400 108.400 C 170.400 109.060,170.220 109.600,170.000 109.600 C 169.780 109.600,169.600 110.320,169.600 111.200 C 169.600 112.533,169.467 112.800,168.800 112.800 C 168.178 112.800,168.000 113.067,168.000 114.000 C 168.000 114.933,167.822 115.200,167.200 115.200 C 166.558 115.200,166.400 115.467,166.400 116.553 C 166.400 117.570,166.201 117.959,165.600 118.116 C 165.059 118.257,164.800 118.662,164.800 119.363 C 164.800 119.933,164.620 120.400,164.400 120.400 C 164.180 120.400,164.000 120.940,164.000 121.600 C 164.000 122.533,163.822 122.800,163.200 122.800 C 162.533 122.800,162.400 123.067,162.400 124.400 C 162.400 125.556,162.233 126.000,161.800 126.000 C 161.400 126.000,161.200 126.400,161.200 127.200 C 161.200 127.860,161.020 128.400,160.800 128.400 C 160.580 128.400,160.400 129.030,160.400 129.800 C 160.400 130.933,160.248 131.200,159.600 131.200 C 158.978 131.200,158.800 131.467,158.800 132.400 C 158.800 133.333,158.622 133.600,158.000 133.600 C 157.333 133.600,157.200 133.867,157.200 135.200 C 157.200 136.080,157.020 136.800,156.800 136.800 C 156.580 136.800,156.400 137.340,156.400 138.000 C 156.400 138.933,156.222 139.200,155.600 139.200 C 154.978 139.200,154.800 139.467,154.800 140.400 C 154.800 141.333,154.622 141.600,154.000 141.600 C 153.333 141.600,153.200 141.867,153.200 143.200 C 153.200 144.533,153.067 144.800,152.400 144.800 C 151.813 144.800,151.600 145.067,151.600 145.800 C 151.600 146.350,151.420 146.800,151.200 146.800 C 150.980 146.800,150.800 147.520,150.800 148.400 C 150.800 149.733,150.667 150.000,150.000 150.000 C 149.385 150.000,149.200 150.267,149.200 151.153 C 149.200 151.970,148.967 152.368,148.400 152.516 C 147.787 152.676,147.600 153.062,147.600 154.163 C 147.600 154.953,147.420 155.600,147.200 155.600 C 146.980 155.600,146.800 156.140,146.800 156.800 C 146.800 157.600,146.600 158.000,146.200 158.000 C 145.767 158.000,145.600 158.444,145.600 159.600 C 145.600 161.111,145.533 161.200,144.400 161.200 C 143.267 161.200,143.200 161.111,143.200 159.600 C 143.200 158.720,143.020 158.000,142.800 158.000 C 142.580 158.000,142.400 157.460,142.400 156.800 C 142.400 155.867,142.222 155.600,141.600 155.600 C 140.933 155.600,140.800 155.333,140.800 154.000 C 140.800 152.667,140.667 152.400,140.000 152.400 C 139.378 152.400,139.200 152.133,139.200 151.200 C 139.200 150.540,139.020 150.000,138.800 150.000 C 138.580 150.000,138.400 149.280,138.400 148.400 C 138.400 147.067,138.267 146.800,137.600 146.800 C 137.013 146.800,136.800 146.533,136.800 145.800 C 136.800 145.067,136.587 144.800,136.000 144.800 C 135.333 144.800,135.200 144.533,135.200 143.200 C 135.200 142.320,135.020 141.600,134.800 141.600 C 134.580 141.600,134.400 141.060,134.400 140.400 C 134.400 139.467,134.222 139.200,133.600 139.200 C 132.978 139.200,132.800 138.933,132.800 138.000 C 132.800 137.067,132.622 136.800,132.000 136.800 C 131.333 136.800,131.200 136.533,131.200 135.200 C 131.200 134.044,131.033 133.600,130.600 133.600 C 130.227 133.600,130.000 133.222,130.000 132.600 C 130.000 132.050,129.820 131.600,129.600 131.600 C 129.380 131.600,129.200 130.880,129.200 130.000 C 129.200 128.667,129.067 128.400,128.400 128.400 C 127.778 128.400,127.600 128.133,127.600 127.200 C 127.600 126.267,127.422 126.000,126.800 126.000 C 126.133 126.000,126.000 125.733,126.000 124.400 C 126.000 123.520,125.820 122.800,125.600 122.800 C 125.380 122.800,125.200 122.260,125.200 121.600 C 125.200 120.667,125.022 120.400,124.400 120.400 C 123.778 120.400,123.600 120.133,123.600 119.200 C 123.600 118.267,123.422 118.000,122.800 118.000 C 122.152 118.000,122.000 117.733,122.000 116.600 C 122.000 115.467,121.848 115.200,121.200 115.200 C 120.578 115.200,120.400 114.933,120.400 114.000 C 120.400 113.340,120.220 112.800,120.000 112.800 C 119.780 112.800,119.600 112.080,119.600 111.200 C 119.600 109.867,119.467 109.600,118.800 109.600 C 118.178 109.600,118.000 109.333,118.000 108.400 C 118.000 107.467,117.822 107.200,117.200 107.200 C 116.533 107.200,116.400 106.933,116.400 105.600 C 116.400 104.720,116.220 104.000,116.000 104.000 C 115.780 104.000,115.600 103.460,115.600 102.800 C 115.600 102.000,115.400 101.600,115.000 101.600 C 114.581 101.600,114.400 101.178,114.400 100.200 C 114.400 99.067,114.248 98.800,113.600 98.800 C 112.978 98.800,112.800 98.533,112.800 97.600 C 112.800 96.667,112.622 96.400,112.000 96.400 C 111.378 96.400,111.200 96.133,111.200 95.200 C 111.200 94.540,111.020 94.000,110.800 94.000 C 110.580 94.000,110.400 93.280,110.400 92.400 C 110.400 91.067,110.267 90.800,109.600 90.800 C 108.978 90.800,108.800 90.533,108.800 89.600 C 108.800 88.667,108.622 88.400,108.000 88.400 C 107.333 88.400,107.200 88.133,107.200 86.800 L 107.200 85.200 64.667 85.200 C 41.273 85.200,22.013 85.320,21.867 85.467 " stroke="none" fill="#fcc826" fill-rule="evenodd"></path><path id="path2" d="M296.000 186.000 C 296.000 187.333,295.867 187.600,295.200 187.600 C 294.437 187.600,294.400 187.867,294.400 193.400 L 294.400 199.200 297.200 199.200 L 300.000 199.200 300.000 227.200 L 300.000 255.200 304.200 255.200 L 308.400 255.200 308.400 227.200 L 308.400 199.200 311.200 199.200 L 314.000 199.200 314.000 193.400 C 314.000 187.867,313.963 187.600,313.200 187.600 C 312.533 187.600,312.400 187.333,312.400 186.000 L 312.400 184.400 304.200 184.400 L 296.000 184.400 296.000 186.000 M315.600 219.800 L 315.600 255.200 324.800 255.200 L 334.000 255.200 334.000 248.200 L 334.000 241.200 328.600 241.200 L 323.200 241.200 323.200 234.600 C 323.200 228.267,323.232 228.000,324.000 228.000 C 324.622 228.000,324.800 227.733,324.800 226.800 L 324.800 225.600 328.600 225.600 L 332.400 225.600 332.400 219.800 C 332.400 214.267,332.363 214.000,331.600 214.000 C 330.978 214.000,330.800 213.733,330.800 212.800 L 330.800 211.600 327.000 211.600 L 323.200 211.600 323.200 206.600 C 323.200 201.867,323.243 201.600,324.000 201.600 C 324.622 201.600,324.800 201.333,324.800 200.400 L 324.800 199.200 329.400 199.200 L 334.000 199.200 334.000 193.400 C 334.000 187.867,333.963 187.600,333.200 187.600 C 332.533 187.600,332.400 187.333,332.400 186.000 L 332.400 184.400 324.000 184.400 L 315.600 184.400 315.600 219.800 M342.000 186.000 C 342.000 187.511,341.933 187.600,340.800 187.600 C 339.733 187.600,339.600 187.733,339.600 188.800 C 339.600 189.733,339.422 190.000,338.800 190.000 C 338.082 190.000,338.000 190.267,338.000 192.600 C 338.000 194.067,337.826 195.200,337.600 195.200 C 337.337 195.200,337.200 204.067,337.200 221.000 C 337.200 237.933,337.337 246.800,337.600 246.800 C 337.820 246.800,338.000 247.520,338.000 248.400 C 338.000 249.733,338.133 250.000,338.800 250.000 C 339.422 250.000,339.600 250.267,339.600 251.200 C 339.600 252.133,339.778 252.400,340.400 252.400 C 341.048 252.400,341.200 252.667,341.200 253.800 L 341.200 255.200 346.600 255.200 L 352.000 255.200 352.000 253.800 C 352.000 252.433,352.038 252.400,353.600 252.400 C 355.111 252.400,355.200 252.333,355.200 251.200 C 355.200 250.267,355.378 250.000,356.000 250.000 C 356.724 250.000,356.800 249.733,356.800 247.200 C 356.800 245.600,356.971 244.400,357.200 244.400 C 357.454 244.400,357.600 241.267,357.600 235.800 L 357.600 227.200 353.200 227.200 L 348.800 227.200 348.800 234.200 C 348.800 240.933,348.770 241.200,348.000 241.200 C 347.378 241.200,347.200 241.467,347.200 242.400 C 347.200 243.200,347.000 243.600,346.600 243.600 C 346.074 243.600,346.000 240.867,346.000 221.400 L 346.000 199.200 347.400 199.200 L 348.800 199.200 348.800 205.800 L 348.800 212.400 353.200 212.400 L 357.600 212.400 357.600 205.400 C 357.600 201.000,357.451 198.400,357.200 198.400 C 356.971 198.400,356.800 197.200,356.800 195.600 C 356.800 193.067,356.724 192.800,356.000 192.800 C 355.352 192.800,355.200 192.533,355.200 191.400 C 355.200 190.267,355.048 190.000,354.400 190.000 C 353.778 190.000,353.600 189.733,353.600 188.800 C 353.600 187.867,353.422 187.600,352.800 187.600 C 352.133 187.600,352.000 187.333,352.000 186.000 L 352.000 184.400 347.000 184.400 L 342.000 184.400 342.000 186.000 M360.800 219.800 L 360.800 255.200 364.600 255.200 L 368.400 255.200 368.400 241.600 C 368.400 228.267,368.416 228.000,369.200 228.000 C 369.822 228.000,370.000 227.733,370.000 226.800 C 370.000 225.667,370.089 225.600,371.600 225.600 L 373.200 225.600 373.200 240.400 L 373.200 255.200 377.400 255.200 L 381.600 255.200 381.600 221.400 C 381.600 187.867,381.594 187.600,380.800 187.600 C 380.133 187.600,380.000 187.333,380.000 186.000 L 380.000 184.400 376.600 184.400 L 373.200 184.400 373.200 198.000 L 373.200 211.600 371.600 211.600 L 370.000 211.600 370.000 210.000 C 370.000 208.667,369.867 208.400,369.200 208.400 C 368.418 208.400,368.400 208.133,368.400 196.400 L 368.400 184.400 364.600 184.400 L 360.800 184.400 360.800 219.800 " stroke="none" fill="#4a4a4e" fill-rule="evenodd"></path><path id="path3" d="" stroke="none" fill="#f5983c" fill-rule="evenodd"></path><path id="path4" d="M292.800 119.200 C 292.800 119.860,292.620 120.400,292.400 120.400 C 292.180 120.400,292.000 120.940,292.000 121.600 C 292.000 122.533,291.822 122.800,291.200 122.800 C 290.533 122.800,290.400 123.067,290.400 124.400 C 290.400 125.733,290.267 126.000,289.600 126.000 C 288.978 126.000,288.800 126.267,288.800 127.200 C 288.800 128.133,288.622 128.400,288.000 128.400 C 287.355 128.400,287.200 128.667,287.200 129.776 C 287.200 130.533,287.020 131.264,286.800 131.400 C 286.580 131.536,286.400 132.066,286.400 132.577 C 286.400 133.170,286.111 133.582,285.600 133.716 C 284.987 133.876,284.800 134.262,284.800 135.363 C 284.800 136.374,284.622 136.800,284.200 136.800 C 283.800 136.800,283.600 137.200,283.600 138.000 C 283.600 138.660,283.420 139.200,283.200 139.200 C 282.980 139.200,282.800 139.740,282.800 140.400 C 282.800 141.333,282.622 141.600,282.000 141.600 C 281.333 141.600,281.200 141.867,281.200 143.200 C 281.200 144.533,281.067 144.800,280.400 144.800 C 279.813 144.800,279.600 145.067,279.600 145.800 C 279.600 146.350,279.420 146.800,279.200 146.800 C 278.980 146.800,278.800 147.520,278.800 148.400 C 278.800 149.733,278.667 150.000,278.000 150.000 C 277.378 150.000,277.200 150.267,277.200 151.200 C 277.200 152.133,277.022 152.400,276.400 152.400 C 275.733 152.400,275.600 152.667,275.600 154.000 C 275.600 155.333,275.467 155.600,274.800 155.600 C 274.178 155.600,274.000 155.867,274.000 156.800 C 274.000 157.460,273.820 158.000,273.600 158.000 C 273.380 158.000,273.200 158.720,273.200 159.600 C 273.200 160.933,273.067 161.200,272.400 161.200 C 271.824 161.200,271.600 161.467,271.600 162.153 C 271.600 162.770,271.318 163.181,270.800 163.316 C 270.265 163.456,270.000 163.862,270.000 164.539 C 270.000 165.097,269.820 165.664,269.600 165.800 C 269.380 165.936,269.200 166.667,269.200 167.424 C 269.200 168.380,269.017 168.800,268.600 168.800 C 268.200 168.800,268.000 169.200,268.000 170.000 C 268.000 170.933,267.822 171.200,267.200 171.200 C 266.533 171.200,266.400 171.467,266.400 172.800 C 266.400 174.133,266.267 174.400,265.600 174.400 C 264.978 174.400,264.800 174.667,264.800 175.600 C 264.800 176.260,264.620 176.800,264.400 176.800 C 264.180 176.800,264.000 177.430,264.000 178.200 C 264.000 179.333,263.848 179.600,263.200 179.600 C 262.578 179.600,262.400 179.867,262.400 180.800 C 262.400 181.733,262.222 182.000,261.600 182.000 C 260.978 182.000,260.800 182.267,260.800 183.200 C 260.800 183.860,260.620 184.400,260.400 184.400 C 260.180 184.400,260.000 185.120,260.000 186.000 C 260.000 187.333,259.867 187.600,259.200 187.600 C 258.578 187.600,258.400 187.867,258.400 188.800 C 258.400 189.733,258.222 190.000,257.600 190.000 C 256.955 190.000,256.800 190.267,256.800 191.376 C 256.800 192.133,256.620 192.864,256.400 193.000 C 256.180 193.136,256.000 193.687,256.000 194.224 C 256.000 194.933,255.782 195.200,255.200 195.200 C 254.533 195.200,254.400 195.467,254.400 196.800 C 254.400 197.956,254.233 198.400,253.800 198.400 C 253.400 198.400,253.200 198.800,253.200 199.600 C 253.200 200.533,253.022 200.800,252.400 200.800 C 251.733 200.800,251.600 201.067,251.600 202.400 C 251.600 203.280,251.420 204.000,251.200 204.000 C 250.980 204.000,250.800 204.540,250.800 205.200 C 250.800 206.133,250.622 206.400,250.000 206.400 C 249.413 206.400,249.200 206.667,249.200 207.400 C 249.200 208.133,248.987 208.400,248.400 208.400 C 247.733 208.400,247.600 208.667,247.600 210.000 C 247.600 210.880,247.420 211.600,247.200 211.600 C 246.980 211.600,246.800 212.140,246.800 212.800 C 246.800 213.733,246.622 214.000,246.000 214.000 C 245.333 214.000,245.200 214.267,245.200 215.600 C 245.200 216.933,245.067 217.200,244.400 217.200 C 243.733 217.200,243.600 217.467,243.600 218.800 L 243.600 220.400 251.000 220.400 L 258.400 220.400 258.400 222.600 C 258.400 224.533,258.303 224.800,257.600 224.800 C 256.978 224.800,256.800 225.067,256.800 226.000 C 256.800 226.660,256.620 227.200,256.400 227.200 C 256.171 227.200,256.000 228.400,256.000 230.000 C 256.000 232.533,255.924 232.800,255.200 232.800 C 254.533 232.800,254.400 233.067,254.400 234.400 C 254.400 235.556,254.233 236.000,253.800 236.000 C 253.400 236.000,253.200 236.400,253.200 237.200 C 253.200 238.133,253.022 238.400,252.400 238.400 C 251.682 238.400,251.600 238.667,251.600 241.000 C 251.600 242.467,251.426 243.600,251.200 243.600 C 250.980 243.600,250.800 244.140,250.800 244.800 C 250.800 245.733,250.622 246.000,250.000 246.000 C 249.267 246.000,249.200 246.267,249.200 249.200 L 249.200 252.400 254.600 252.400 L 260.000 252.400 260.000 254.600 C 260.000 256.533,259.903 256.800,259.200 256.800 C 258.476 256.800,258.400 257.067,258.400 259.600 C 258.400 262.133,258.324 262.400,257.600 262.400 C 256.933 262.400,256.800 262.667,256.800 264.000 C 256.800 264.880,256.620 265.600,256.400 265.600 C 256.180 265.600,256.000 266.569,256.000 267.753 C 256.000 269.570,255.875 269.939,255.200 270.116 C 254.587 270.276,254.400 270.662,254.400 271.763 C 254.400 272.774,254.222 273.200,253.800 273.200 C 253.324 273.200,253.200 273.778,253.200 276.000 C 253.200 278.533,253.124 278.800,252.400 278.800 C 251.778 278.800,251.600 279.067,251.600 280.000 C 251.600 280.660,251.420 281.200,251.200 281.200 C 250.974 281.200,250.800 282.333,250.800 283.800 C 250.800 286.133,250.718 286.400,250.000 286.400 C 249.378 286.400,249.200 286.667,249.200 287.600 C 249.200 288.533,249.022 288.800,248.400 288.800 C 247.733 288.800,247.600 289.067,247.600 290.400 C 247.600 291.280,247.420 292.000,247.200 292.000 C 246.971 292.000,246.800 293.200,246.800 294.800 C 246.800 297.333,246.724 297.600,246.000 297.600 C 245.378 297.600,245.200 297.867,245.200 298.800 C 245.200 299.733,245.022 300.000,244.400 300.000 C 243.682 300.000,243.600 300.267,243.600 302.600 C 243.600 304.933,243.518 305.200,242.800 305.200 C 242.133 305.200,242.000 305.467,242.000 306.800 C 242.000 307.680,241.820 308.400,241.600 308.400 C 241.378 308.400,241.200 309.467,241.200 310.800 C 241.200 312.933,241.111 313.200,240.400 313.200 C 239.752 313.200,239.600 313.467,239.600 314.600 C 239.600 315.578,239.419 316.000,239.000 316.000 C 238.567 316.000,238.400 316.444,238.400 317.600 C 238.400 319.040,238.500 319.200,239.400 319.200 C 240.244 319.200,240.400 319.013,240.400 318.000 C 240.400 317.067,240.578 316.800,241.200 316.800 C 241.848 316.800,242.000 316.533,242.000 315.400 C 242.000 314.630,242.180 314.000,242.400 314.000 C 242.620 314.000,242.800 313.460,242.800 312.800 C 242.800 311.867,242.978 311.600,243.600 311.600 C 244.222 311.600,244.400 311.333,244.400 310.400 C 244.400 309.467,244.578 309.200,245.200 309.200 C 245.867 309.200,246.000 308.933,246.000 307.600 C 246.000 306.267,246.133 306.000,246.800 306.000 C 247.422 306.000,247.600 305.733,247.600 304.800 C 247.600 304.140,247.780 303.600,248.000 303.600 C 248.220 303.600,248.400 302.880,248.400 302.000 C 248.400 300.667,248.533 300.400,249.200 300.400 C 249.787 300.400,250.000 300.133,250.000 299.400 C 250.000 298.667,250.213 298.400,250.800 298.400 C 251.467 298.400,251.600 298.133,251.600 296.800 C 251.600 295.920,251.780 295.200,252.000 295.200 C 252.220 295.200,252.400 294.660,252.400 294.000 C 252.400 293.200,252.600 292.800,253.000 292.800 C 253.433 292.800,253.600 292.356,253.600 291.200 C 253.600 289.867,253.733 289.600,254.400 289.600 C 255.022 289.600,255.200 289.333,255.200 288.400 C 255.200 287.467,255.378 287.200,256.000 287.200 C 256.622 287.200,256.800 286.933,256.800 286.000 C 256.800 285.340,256.980 284.800,257.200 284.800 C 257.420 284.800,257.600 284.170,257.600 283.400 C 257.600 282.267,257.752 282.000,258.400 282.000 C 259.022 282.000,259.200 281.733,259.200 280.800 C 259.200 279.867,259.378 279.600,260.000 279.600 C 260.667 279.600,260.800 279.333,260.800 278.000 C 260.800 277.120,260.980 276.400,261.200 276.400 C 261.420 276.400,261.600 275.860,261.600 275.200 C 261.600 274.267,261.778 274.000,262.400 274.000 C 263.067 274.000,263.200 273.733,263.200 272.400 C 263.200 271.067,263.333 270.800,264.000 270.800 C 264.587 270.800,264.800 270.533,264.800 269.800 C 264.800 269.250,264.980 268.800,265.200 268.800 C 265.420 268.800,265.600 268.260,265.600 267.600 C 265.600 266.667,265.778 266.400,266.400 266.400 C 267.067 266.400,267.200 266.133,267.200 264.800 C 267.200 263.467,267.333 263.200,268.000 263.200 C 268.622 263.200,268.800 262.933,268.800 262.000 C 268.800 261.200,269.000 260.800,269.400 260.800 C 269.833 260.800,270.000 260.356,270.000 259.200 C 270.000 258.320,270.180 257.600,270.400 257.600 C 270.620 257.600,270.800 257.060,270.800 256.400 C 270.800 255.467,270.978 255.200,271.600 255.200 C 272.248 255.200,272.400 254.933,272.400 253.800 C 272.400 252.667,272.552 252.400,273.200 252.400 C 273.822 252.400,274.000 252.133,274.000 251.200 C 274.000 250.540,274.180 250.000,274.400 250.000 C 274.620 250.000,274.800 249.280,274.800 248.400 C 274.800 247.067,274.933 246.800,275.600 246.800 C 276.222 246.800,276.400 246.533,276.400 245.600 C 276.400 244.667,276.578 244.400,277.200 244.400 C 277.822 244.400,278.000 244.133,278.000 243.200 C 278.000 242.267,278.178 242.000,278.800 242.000 C 279.467 242.000,279.600 241.733,279.600 240.400 C 279.600 239.520,279.780 238.800,280.000 238.800 C 280.220 238.800,280.400 238.350,280.400 237.800 C 280.400 237.067,280.613 236.800,281.200 236.800 C 281.867 236.800,282.000 236.533,282.000 235.200 C 282.000 233.867,282.133 233.600,282.800 233.600 C 283.422 233.600,283.600 233.333,283.600 232.400 C 283.600 231.740,283.780 231.200,284.000 231.200 C 284.220 231.200,284.400 230.480,284.400 229.600 C 284.400 228.444,284.567 228.000,285.000 228.000 C 285.400 228.000,285.600 227.600,285.600 226.800 C 285.600 225.867,285.778 225.600,286.400 225.600 C 287.022 225.600,287.200 225.333,287.200 224.400 C 287.200 223.740,287.380 223.200,287.600 223.200 C 287.820 223.200,288.000 222.390,288.000 221.400 L 288.000 219.600 281.000 219.600 C 274.267 219.600,274.000 219.570,274.000 218.800 C 274.000 218.360,274.180 218.000,274.400 218.000 C 274.629 218.000,274.800 216.800,274.800 215.200 C 274.800 212.667,274.876 212.400,275.600 212.400 C 276.267 212.400,276.400 212.133,276.400 210.800 C 276.400 209.467,276.533 209.200,277.200 209.200 C 277.903 209.200,278.000 208.933,278.000 207.000 C 278.000 205.067,278.097 204.800,278.800 204.800 C 279.467 204.800,279.600 204.533,279.600 203.200 C 279.600 202.320,279.780 201.600,280.000 201.600 C 280.220 201.600,280.400 201.060,280.400 200.400 C 280.400 199.467,280.578 199.200,281.200 199.200 C 281.924 199.200,282.000 198.933,282.000 196.400 C 282.000 193.867,282.076 193.600,282.800 193.600 C 283.445 193.600,283.600 193.333,283.600 192.224 C 283.600 191.467,283.780 190.736,284.000 190.600 C 284.220 190.464,284.400 189.733,284.400 188.976 C 284.400 188.219,284.220 187.600,284.000 187.600 C 283.780 187.600,283.600 186.880,283.600 186.000 L 283.600 184.400 278.000 184.400 C 272.667 184.400,272.400 184.362,272.400 183.600 C 272.400 183.067,272.667 182.800,273.200 182.800 C 273.924 182.800,274.000 182.533,274.000 180.000 C 274.000 178.400,274.171 177.200,274.400 177.200 C 274.620 177.200,274.800 176.750,274.800 176.200 C 274.800 175.467,275.013 175.200,275.600 175.200 C 276.267 175.200,276.400 174.933,276.400 173.600 C 276.400 172.267,276.533 172.000,277.200 172.000 C 277.924 172.000,278.000 171.733,278.000 169.200 C 278.000 166.667,278.076 166.400,278.800 166.400 C 279.422 166.400,279.600 166.133,279.600 165.200 C 279.600 164.540,279.780 164.000,280.000 164.000 C 280.226 164.000,280.400 162.867,280.400 161.400 C 280.400 159.067,280.482 158.800,281.200 158.800 C 281.822 158.800,282.000 158.533,282.000 157.600 C 282.000 156.667,282.178 156.400,282.800 156.400 C 283.524 156.400,283.600 156.133,283.600 153.600 C 283.600 152.000,283.771 150.800,284.000 150.800 C 284.220 150.800,284.400 150.080,284.400 149.200 C 284.400 148.044,284.567 147.600,285.000 147.600 C 285.472 147.600,285.600 147.044,285.600 145.000 C 285.600 142.667,285.682 142.400,286.400 142.400 C 287.022 142.400,287.200 142.133,287.200 141.200 C 287.200 140.540,287.380 140.000,287.600 140.000 C 287.820 140.000,288.000 139.460,288.000 138.800 C 288.000 137.867,288.178 137.600,288.800 137.600 C 289.524 137.600,289.600 137.333,289.600 134.800 C 289.600 132.267,289.676 132.000,290.400 132.000 C 291.048 132.000,291.200 131.733,291.200 130.600 C 291.200 129.467,291.352 129.200,292.000 129.200 C 292.724 129.200,292.800 128.933,292.800 126.400 C 292.800 124.800,292.971 123.600,293.200 123.600 C 293.420 123.600,293.600 123.060,293.600 122.400 C 293.600 121.467,293.778 121.200,294.400 121.200 C 295.067 121.200,295.200 120.933,295.200 119.600 C 295.200 118.089,295.133 118.000,294.000 118.000 C 292.933 118.000,292.800 118.133,292.800 119.200 " stroke="none" fill="#eb3a34" fill-rule="evenodd"></path><path id="path5" d="" stroke="none" fill="#100a028" fill-rule="evenodd"></path><path id="path6" d="" stroke="none" fill="#100a028" fill-rule="evenodd"></path><path id="path7" d="" stroke="none" fill="#100a028" fill-rule="evenodd"></path><path id="path8" d="" stroke="none" fill="#100a028" fill-rule="evenodd"></path></g></svg>